<svg width="32" height="27" viewBox="0 0 32 27" fill="none" xmlns="http://www.w3.org/2000/svg">
<path fill-rule="evenodd" clip-rule="evenodd" d="M31.88 3.16C30.863 3.62 29.744 3.899 28.648 4.083C29.168 3.995 29.936 3.053 30.243 2.671C30.711 2.09 31.1 1.426 31.319 0.711C31.347 0.655 31.369 0.585 31.313 0.542C31.243 0.515 31.197 0.529 31.141 0.557C29.9275 1.20495 28.6379 1.69878 27.302 2.027C27.2557 2.04141 27.2063 2.04248 27.1594 2.0301C27.1126 2.01772 27.0701 1.99238 27.037 1.957C26.9344 1.83385 26.8224 1.71884 26.702 1.613C26.1474 1.1353 25.5194 0.750344 24.842 0.473C23.9378 0.106762 22.9625 -0.0504851 21.989 0.0129997C21.0433 0.0772901 20.1214 0.337822 19.282 0.778C18.4411 1.21757 17.6987 1.82391 17.1 2.56C16.4787 3.32429 16.0335 4.2161 15.796 5.172C15.572 6.092 15.59 7 15.726 7.929C15.748 8.083 15.734 8.104 15.595 8.083C10.319 7.3 5.949 5.412 2.4 1.37C2.246 1.194 2.162 1.194 2.036 1.383C0.483 3.711 1.236 7.45 3.176 9.288C3.435 9.533 3.7 9.778 3.987 10.001C3.883 10.023 2.592 9.883 1.441 9.288C1.287 9.191 1.21 9.247 1.196 9.421C1.186 9.67376 1.20007 9.9269 1.238 10.177C1.536 12.537 3.17 14.719 5.408 15.571C5.674 15.682 5.967 15.781 6.254 15.829C5.744 15.941 5.219 16.021 3.757 15.907C3.575 15.871 3.505 15.962 3.575 16.137C4.673 19.132 7.045 20.023 8.821 20.53C9.059 20.572 9.297 20.572 9.535 20.628C9.521 20.649 9.507 20.649 9.493 20.67C8.903 21.568 6.861 22.237 5.91 22.57C4.18 23.174 2.297 23.446 0.468 23.266C0.176 23.223 0.114 23.226 0.0349999 23.266C-0.0450001 23.316 0.0249999 23.386 0.119 23.461C0.489 23.706 0.867 23.923 1.252 24.133C2.40794 24.7493 3.62787 25.2372 4.89 25.588C11.427 27.393 18.79 26.067 23.7 21.19C27.553 17.36 28.904 12.079 28.904 6.79C28.904 6.584 29.148 6.47 29.294 6.36C30.297 5.607 31.094 4.705 31.842 3.698C32.01 3.472 32 3.271 32 3.188V3.16C32 3.076 32.01 3.101 31.88 3.16Z" fill="#FF3D5E"/>
</svg>
