<svg width="24" height="24" viewBox="0 0 24 24" fill="none" xmlns="http://www.w3.org/2000/svg">
<path d="M6.53063 18.9229L12.8441 21.9135C14.7028 22.7908 16.7322 23.2471 18.7875 23.25C19.5958 23.2499 20.3859 23.0101 21.058 22.5609C21.73 22.1118 22.2538 21.4735 22.5631 20.7267C22.8725 19.98 22.9534 19.1583 22.7958 18.3655C22.6382 17.5727 22.2491 16.8444 21.6776 16.2728L20.6951 15.2903C19.8379 14.4375 19.1583 13.4232 18.6957 12.3061C18.2331 11.189 17.9966 9.99124 18 8.78213C18 7.0765 17.4571 5.41514 16.4499 4.03868C15.4427 2.66222 14.0234 1.64212 12.3977 1.12615C10.772 0.610172 9.02425 0.625104 7.40759 1.16878C5.79094 1.71246 4.38932 2.75666 3.40576 4.15013L2.85488 4.93013C2.06002 6.05622 1.52106 7.34253 1.27577 8.6989C1.03049 10.0553 1.08482 11.4489 1.43496 12.782C1.78509 14.1152 2.42256 15.3556 3.30267 16.4164C4.18279 17.4772 5.28426 18.3327 6.52988 18.9229H6.53063ZM3.46763 5.3625L4.01813 4.58288C4.90992 3.31963 6.18067 2.37303 7.64634 1.88017C9.11201 1.38731 10.6965 1.37377 12.1704 1.84152C13.6443 2.30927 14.931 3.23402 15.8443 4.48185C16.7575 5.72968 17.2499 7.23581 17.25 8.78213C17.2464 10.0898 17.5022 11.3852 18.0026 12.5933C18.503 13.8015 19.2381 14.8984 20.1653 15.8205L21.1478 16.803C21.6144 17.2698 21.9321 17.8645 22.0608 18.5118C22.1895 19.1592 22.1233 19.8302 21.8707 20.4399C21.618 21.0497 21.1903 21.5709 20.6415 21.9375C20.0927 22.3042 19.4475 22.5 18.7875 22.5C16.8431 22.4972 14.9232 22.0655 13.1648 21.2355L6.85163 18.2449C5.70477 17.7016 4.6906 16.9141 3.88023 15.9375C3.06986 14.9609 2.48289 13.8189 2.16047 12.5915C1.83806 11.3641 1.788 10.0811 2.0138 8.83231C2.23961 7.58354 2.73581 6.39926 3.46763 5.3625Z" fill="#FF3D5E"/>
<path d="M7.17225 17.5673L13.4861 20.5579C15.1441 21.3403 16.9542 21.7474 18.7875 21.75C19.2991 21.7498 19.7993 21.598 20.2246 21.3137C20.65 21.0294 20.9815 20.6253 21.1773 20.1526C21.3731 19.6799 21.4243 19.1597 21.3245 18.6579C21.2248 18.1561 20.9785 17.6951 20.6167 17.3333L19.635 16.35C18.6381 15.3584 17.8478 14.179 17.3097 12.88C16.7715 11.581 16.4964 10.1882 16.5 8.78213C16.4999 7.39506 16.0582 6.04404 15.239 4.92472C14.4199 3.8054 13.2657 2.97588 11.9436 2.55629C10.6215 2.13671 9.20017 2.14884 7.88544 2.59093C6.57072 3.03301 5.43083 3.88211 4.63087 5.01525L4.08037 5.79525C3.41169 6.74264 2.95829 7.82481 2.75196 8.96592C2.54563 10.107 2.59135 11.2794 2.88593 12.401C3.1805 13.5226 3.7168 14.5661 4.45724 15.4586C5.19767 16.351 6.12432 17.0707 7.17225 17.5673ZM4.69312 6.22763L5.24362 5.44763C5.95175 4.4446 6.96077 3.693 8.12455 3.30169C9.28834 2.91037 10.5465 2.89965 11.7168 3.27107C12.887 3.64249 13.9087 4.37678 14.6338 5.3676C15.359 6.35841 15.7499 7.55432 15.75 8.78213C15.7458 10.287 16.0401 11.7778 16.616 13.1682C17.1918 14.5586 18.0377 15.8209 19.1047 16.8821L20.0869 17.8643C20.3435 18.1213 20.5182 18.4486 20.5889 18.8049C20.6596 19.1611 20.6231 19.5304 20.484 19.8659C20.345 20.2015 20.1096 20.4883 19.8077 20.6901C19.5057 20.892 19.1507 20.9998 18.7875 21C17.0654 20.9975 15.365 20.6151 13.8075 19.8803L7.49362 16.8896C6.54447 16.44 5.70516 15.7881 5.03451 14.9799C4.36386 14.1716 3.8781 13.2264 3.61128 12.2106C3.34446 11.1948 3.30304 10.1329 3.48992 9.09935C3.6768 8.06583 4.08747 7.08569 4.69312 6.22763Z" fill="#FF3D5E"/>
<path d="M8.25 11.25C8.84334 11.25 9.42336 11.0741 9.91671 10.7444C10.4101 10.4148 10.7946 9.94623 11.0216 9.39805C11.2487 8.84987 11.3081 8.24667 11.1924 7.66473C11.0766 7.08279 10.7909 6.54824 10.3713 6.12868C9.95176 5.70912 9.41721 5.4234 8.83527 5.30765C8.25333 5.19189 7.65013 5.2513 7.10195 5.47836C6.55377 5.70543 6.08524 6.08994 5.75559 6.58329C5.42595 7.07664 5.25 7.65666 5.25 8.25C5.25089 9.04538 5.56725 9.80792 6.12967 10.3703C6.69208 10.9328 7.45462 11.2491 8.25 11.25ZM8.25 6C8.69501 6 9.13002 6.13196 9.50003 6.37919C9.87004 6.62643 10.1584 6.97783 10.3287 7.38896C10.499 7.8001 10.5436 8.2525 10.4568 8.68895C10.37 9.12541 10.1557 9.52632 9.84099 9.84099C9.52632 10.1557 9.12541 10.37 8.68895 10.4568C8.2525 10.5436 7.8001 10.499 7.38896 10.3287C6.97783 10.1584 6.62643 9.87005 6.37919 9.50003C6.13196 9.13002 6 8.69501 6 8.25C6.0006 7.65345 6.23784 7.0815 6.65967 6.65967C7.0815 6.23784 7.65345 6.0006 8.25 6Z" fill="#FF3D5E"/>
<path d="M8.25 9.75C8.54667 9.75 8.83668 9.66203 9.08336 9.49721C9.33003 9.33238 9.52229 9.09811 9.63582 8.82403C9.74935 8.54994 9.77906 8.24834 9.72118 7.95737C9.6633 7.66639 9.52044 7.39912 9.31066 7.18934C9.10088 6.97956 8.83361 6.8367 8.54264 6.77882C8.25166 6.72094 7.95006 6.75065 7.67598 6.86418C7.40189 6.97771 7.16762 7.16997 7.0028 7.41665C6.83797 7.66332 6.75 7.95333 6.75 8.25C6.75 8.64783 6.90804 9.02936 7.18934 9.31066C7.47064 9.59197 7.85218 9.75 8.25 9.75ZM8.25 7.5C8.39834 7.5 8.54334 7.54399 8.66668 7.6264C8.79001 7.70881 8.88614 7.82594 8.94291 7.96299C8.99968 8.10003 9.01453 8.25083 8.98559 8.39632C8.95665 8.5418 8.88522 8.67544 8.78033 8.78033C8.67544 8.88522 8.5418 8.95665 8.39632 8.98559C8.25083 9.01453 8.10003 8.99968 7.96299 8.94291C7.82594 8.88614 7.70881 8.79002 7.6264 8.66668C7.54399 8.54334 7.5 8.39834 7.5 8.25C7.5 8.05109 7.57902 7.86032 7.71967 7.71967C7.86032 7.57902 8.05109 7.5 8.25 7.5Z" fill="#FF3D5E"/>
</svg>
