<svg width="17" height="24" viewBox="0 0 17 24" fill="none" xmlns="http://www.w3.org/2000/svg">
<mask id="path-1-inside-1_2_22" fill="white">
<path d="M0 9.12C0 15.3509 7.50864 22.6013 7.82832 22.907L8.16 23.2238L8.49168 22.9066C8.81136 22.6013 16.32 15.3509 16.32 9.12C16.32 4.9128 14.183 0 8.16 0C2.13696 0 0 4.9128 0 9.12ZM15.36 9.12C15.36 14.2282 9.61632 20.4 8.16 21.8822C6.70368 20.4 0.96 14.2282 0.96 9.12C0.96 3.10368 4.67952 0.96 8.16 0.96C11.6405 0.96 15.36 3.10368 15.36 9.12Z"/>
</mask>
<path d="M0 9.12C0 15.3509 7.50864 22.6013 7.82832 22.907L8.16 23.2238L8.49168 22.9066C8.81136 22.6013 16.32 15.3509 16.32 9.12C16.32 4.9128 14.183 0 8.16 0C2.13696 0 0 4.9128 0 9.12ZM15.36 9.12C15.36 14.2282 9.61632 20.4 8.16 21.8822C6.70368 20.4 0.96 14.2282 0.96 9.12C0.96 3.10368 4.67952 0.96 8.16 0.96C11.6405 0.96 15.36 3.10368 15.36 9.12Z" fill="#FF3D5E"/>
<path d="M7.82832 22.907L7.13712 23.6297L7.13762 23.6302L7.82832 22.907ZM8.16 23.2238L7.4693 23.947L8.16052 24.6072L8.85125 23.9465L8.16 23.2238ZM8.49168 22.9066L7.80105 22.1834L7.80043 22.1839L8.49168 22.9066ZM8.16 21.8822L7.44668 22.5831L8.16 23.3091L8.87332 22.5831L8.16 21.8822ZM-1 9.12C-1 12.5764 1.05192 16.1713 2.98622 18.8245C4.95302 21.5224 6.95746 23.4579 7.13712 23.6297L8.51952 22.1844C8.3795 22.0505 6.46978 20.2079 4.60234 17.6463C2.7024 15.0402 1 11.8945 1 9.12H-1ZM7.13762 23.6302L7.4693 23.947L8.8507 22.5007L8.51902 22.1839L7.13762 23.6302ZM8.85125 23.9465L9.18293 23.6292L7.80043 22.1839L7.46875 22.5012L8.85125 23.9465ZM9.18231 23.6298C9.36261 23.4576 11.367 21.5222 13.3338 18.8245C15.2681 16.1713 17.32 12.5764 17.32 9.12H15.32C15.32 11.8945 13.6176 15.0402 11.7177 17.6463C9.85017 20.2078 7.94043 22.0502 7.80105 22.1834L9.18231 23.6298ZM17.32 9.12C17.32 6.86893 16.7517 4.36244 15.3049 2.3907C13.8265 0.376007 11.4851 -1 8.16 -1V1C10.8579 1 12.5965 2.08039 13.6924 3.5739C14.8198 5.11036 15.32 7.16387 15.32 9.12H17.32ZM8.16 -1C4.83485 -1 2.49347 0.376007 1.01513 2.3907C-0.431693 4.36244 -1 6.86893 -1 9.12H1C1 7.16387 1.50017 5.11036 2.62759 3.5739C3.72349 2.08039 5.46211 1 8.16 1V-1ZM14.36 9.12C14.36 11.3539 13.0785 13.9591 11.4806 16.2965C9.90973 18.5944 8.15513 20.4603 7.44668 21.1814L8.87332 22.5831C9.62119 21.8219 11.4666 19.8608 13.1317 17.4252C14.7697 15.0291 16.36 11.9943 16.36 9.12H14.36ZM8.87332 21.1814C8.16486 20.4603 6.41027 18.5944 4.83942 16.2965C3.2415 13.9591 1.96 11.3539 1.96 9.12H-0.04C-0.04 11.9943 1.55034 15.0291 3.18834 17.4252C4.85341 19.8608 6.69881 21.8219 7.44668 22.5831L8.87332 21.1814ZM1.96 9.12C1.96 6.32683 2.81639 4.57249 3.94112 3.5112C5.08103 2.43558 6.615 1.96 8.16 1.96V-0.04C6.22452 -0.04 4.15849 0.55626 2.56852 2.05656C0.963368 3.57119 -0.04 5.89685 -0.04 9.12H1.96ZM8.16 1.96C9.705 1.96 11.239 2.43558 12.3789 3.5112C13.5036 4.57249 14.36 6.32683 14.36 9.12H16.36C16.36 5.89685 15.3566 3.57119 13.7515 2.05656C12.1615 0.55626 10.0955 -0.04 8.16 -0.04V1.96Z" fill="#FF3D5E" mask="url(#path-1-inside-1_2_22)"/>
<mask id="path-3-inside-2_2_22" fill="white">
<path d="M3.35999 7.68C3.35999 10.3267 5.51327 12.48 8.15999 12.48C10.8067 12.48 12.96 10.3267 12.96 7.68C12.96 5.03328 10.8067 2.88 8.15999 2.88C5.51327 2.88 3.35999 5.03328 3.35999 7.68ZM12 7.68C12 9.79728 10.2773 11.52 8.15999 11.52C6.04271 11.52 4.31999 9.79728 4.31999 7.68C4.31999 5.56272 6.04271 3.84 8.15999 3.84C10.2773 3.84 12 5.56272 12 7.68Z"/>
</mask>
<path d="M3.35999 7.68C3.35999 10.3267 5.51327 12.48 8.15999 12.48C10.8067 12.48 12.96 10.3267 12.96 7.68C12.96 5.03328 10.8067 2.88 8.15999 2.88C5.51327 2.88 3.35999 5.03328 3.35999 7.68ZM12 7.68C12 9.79728 10.2773 11.52 8.15999 11.52C6.04271 11.52 4.31999 9.79728 4.31999 7.68C4.31999 5.56272 6.04271 3.84 8.15999 3.84C10.2773 3.84 12 5.56272 12 7.68Z" fill="#FF3D5E"/>
<path d="M2.35999 7.68C2.35999 10.879 4.96098 13.48 8.15999 13.48V11.48C6.06555 11.48 4.35999 9.77443 4.35999 7.68H2.35999ZM8.15999 13.48C11.359 13.48 13.96 10.879 13.96 7.68H11.96C11.96 9.77443 10.2544 11.48 8.15999 11.48V13.48ZM13.96 7.68C13.96 4.48099 11.359 1.88 8.15999 1.88V3.88C10.2544 3.88 11.96 5.58556 11.96 7.68H13.96ZM8.15999 1.88C4.96098 1.88 2.35999 4.48099 2.35999 7.68H4.35999C4.35999 5.58556 6.06555 3.88 8.15999 3.88V1.88ZM11 7.68C11 9.24499 9.72498 10.52 8.15999 10.52V12.52C10.8296 12.52 13 10.3496 13 7.68H11ZM8.15999 10.52C6.59499 10.52 5.31999 9.24499 5.31999 7.68H3.31999C3.31999 10.3496 5.49042 12.52 8.15999 12.52V10.52ZM5.31999 7.68C5.31999 6.115 6.59499 4.84 8.15999 4.84V2.84C5.49042 2.84 3.31999 5.01043 3.31999 7.68H5.31999ZM8.15999 4.84C9.72498 4.84 11 6.115 11 7.68H13C13 5.01043 10.8296 2.84 8.15999 2.84V4.84Z" fill="#FF3D5E" mask="url(#path-3-inside-2_2_22)"/>
</svg>
