<svg width="25" height="25" viewBox="0 0 25 25" fill="none" xmlns="http://www.w3.org/2000/svg">
<path d="M18.1871 24.6671C18.0401 24.6671 17.8931 24.6611 17.7455 24.6503C15.3187 24.4651 12.9951 23.5909 11.0482 22.1303C8.07566 19.9007 5.43521 17.2599 3.20612 14.287C1.74534 12.3401 0.871034 10.0166 0.686088 7.58969C0.622127 6.76564 0.737466 5.93757 1.02417 5.16236C1.31088 4.38721 1.76215 3.68333 2.34691 3.09924L3.85053 1.59382C4.44435 1.00103 5.24914 0.668091 6.08825 0.668091C6.92737 0.668091 7.73216 1.00103 8.32598 1.59382L9.6856 2.95404C9.97948 3.24789 10.2126 3.59675 10.3716 3.9807C10.5307 4.36465 10.6126 4.7762 10.6126 5.19176C10.6126 5.60733 10.5307 6.01887 10.3716 6.40282C10.2126 6.78676 9.97948 7.13567 9.6856 7.42949L8.90559 8.2095C8.58525 8.53117 8.38586 8.95363 8.34116 9.40538C8.29646 9.85718 8.40914 10.3105 8.66019 10.6887C10.2389 13.0612 12.2741 15.0958 14.6471 16.6738C15.0254 16.9244 15.4787 17.0369 15.9304 16.9921C16.382 16.9474 16.8044 16.7483 17.1263 16.4284L17.9063 15.6484C18.2001 15.3545 18.549 15.1214 18.933 14.9623C19.3169 14.8033 19.7285 14.7214 20.144 14.7214C20.5596 14.7214 20.9711 14.8033 21.3551 14.9623C21.739 15.1214 22.0879 15.3545 22.3818 15.6484L23.742 17.008C24.0359 17.3019 24.269 17.6507 24.428 18.0347C24.5871 18.4186 24.6689 18.8302 24.6689 19.2457C24.6689 19.6613 24.5871 20.0729 24.428 20.4568C24.269 20.8407 24.0359 21.1896 23.742 21.4835L22.2348 22.9871C21.7036 23.5194 21.0727 23.9417 20.3782 24.23C19.6836 24.5182 18.9391 24.6668 18.1871 24.6671ZM6.08795 1.86683C5.83001 1.8665 5.57447 1.9171 5.33615 2.01574C5.09776 2.11438 4.88122 2.25911 4.69894 2.44164L3.19352 3.94765C2.73124 4.40947 2.37448 4.96598 2.14775 5.57883C1.92102 6.19168 1.82971 6.84641 1.8801 7.49789C2.0486 9.69722 2.84148 11.8028 4.16553 13.567C6.32658 16.448 8.88597 19.0074 11.767 21.1685C13.5311 22.4927 15.6367 23.2857 17.8361 23.4539C18.4875 23.5035 19.142 23.4117 19.7547 23.185C20.3675 22.9584 20.924 22.6021 21.3863 22.1405L22.8918 20.6351C23.2602 20.2665 23.4671 19.7668 23.4671 19.2457C23.4671 18.7247 23.2602 18.2249 22.8918 17.8564L21.5315 16.4968C21.1575 16.1392 20.66 15.9396 20.1425 15.9396C19.6251 15.9396 19.1276 16.1392 18.7535 16.4968L17.9735 17.2768C17.4553 17.7926 16.775 18.1136 16.0474 18.1857C15.3199 18.2578 14.5897 18.0764 13.9805 17.6722C11.476 16.0063 9.3283 13.8586 7.66238 11.3541C7.25809 10.7449 7.07665 10.0147 7.14871 9.28718C7.22077 8.55961 7.54189 7.8792 8.05778 7.36109L8.83779 6.58108C9.20619 6.21268 9.41314 5.71305 9.41314 5.19206C9.41314 4.67108 9.20619 4.17144 8.83779 3.80305L7.47757 2.44224C7.29523 2.25959 7.07857 2.11474 6.84012 2.016C6.60168 1.91725 6.34608 1.86656 6.08795 1.86683Z" fill="#FF3D5E"/>
</svg>
