<svg width="24" height="24" viewBox="0 0 24 24" fill="none" xmlns="http://www.w3.org/2000/svg">
<path d="M12.096 23.232C6.67201 23.232 2.25601 18.816 2.25601 13.392C2.25601 7.968 6.67201 3.504 12.096 3.504C17.52 3.504 21.936 7.92 21.936 13.344C21.936 18.768 17.52 23.232 12.096 23.232ZM12.096 4.464C7.20001 4.464 3.21601 8.448 3.21601 13.344C3.21601 18.24 7.20001 22.272 12.096 22.272C16.992 22.272 20.976 18.288 20.976 13.392C20.976 8.496 16.992 4.464 12.096 4.464Z" fill="#FF3D5E"/>
<path d="M12.096 9.168C11.808 9.168 11.616 8.976 11.616 8.688V7.872C11.616 7.584 11.808 7.392 12.096 7.392C12.384 7.392 12.576 7.584 12.576 7.872V8.688C12.576 8.976 12.384 9.168 12.096 9.168Z" fill="#FF3D5E"/>
<path d="M12.096 19.296C11.808 19.296 11.616 19.104 11.616 18.816V10.608C11.616 10.32 11.808 10.128 12.096 10.128C12.384 10.128 12.576 10.32 12.576 10.608V18.816C12.576 19.104 12.384 19.296 12.096 19.296Z" fill="#FF3D5E"/>
</svg>
